<?xml version="1.0" encoding="UTF-8"?>
<svg version="1.1" viewBox="0 0 1940 824" width="1280" height="1280" xmlns="http://www.w3.org/2000/svg">
<path transform="translate(1521)" d="m0 0h62l26 6 15 5 16 8 11 7 13 11 10 11 10 15 12 24v2l5 2 12 9 13 11 10 10 13 17 9 15 10 19 14 7h22l25 3 18 5 18 8 16 10 13 10 11 11 10 13 10 17 7 17 5 15 3 15v34l-6 24-8 20-8 14-11 14-9 10-10 8-14 9-12 7-19 8h-2l-2 6-12 16-12 13-13 11-6 4-1 18-5 30-4 14 1 4 11 9 8 8 11 14 9 16 6 15 5 17 3 21v32l10 8 6 7 6 13 2 8v14l-3 12-6 10-9 10-10 6-9 3-5 1-34 1-17 9-17 6-17 4-27 4-33 3h-42l-22-3-15-4-13-5-16-9-14-12-8-9-8-13-7-17v-2l-47 1-3 9-5 12-9 13-10 10-10 6-10 5-15 5-26 5-25 3h-39l-27-3-34-7-27-8-22-8-4-1-473-3h-191l-11 5-19 5-19 3-16 1-25-3-22-6-4-2-5 1-23 12-21 9-22 7-30 7-14 2h-45l-33-7-20-6-20-8-15-8-14-9-14-11-15-14-7-8-10-13-12-20-9-20-7-22-5-25-2-20v-32l1-15 1-5-16-4-16-8-9-7-10-9-11-15-9-19-4-13-3-21-6-70-9-108-4-42-1-8v-31l8-23 9-15 11-12 8-7 18-10 27-11 23-7 25-5 13-2 15-1h18l21 2 20 4 16 5 17 7 16 8 16 11 10 8 13 12 5 5 6-2 15-7 19-6 16-3 13-1h14l19 2 20 5 10 4 7-1 8-4 3-1 41-1 72-1 320-2h58l27 1 13 4 9 5 8-1 23-5 16-1h14l20 2 17 4 19 7 17 9 17 12 13 12 3 3 4-2 11-11 11-8 15-9 19-7 16-3 18-1 22 1 8-17 12-19 10-13 12-14 16-15 16-12 16-10 19-10 7-3 7-8 6-8 9-10 14-14 15-11 16-9 14-6 21-6z" fill="#0C8A4B"/>
<path transform="translate(1526,123)" d="m0 0h20l3 10 5 6 9 3 5-1-1-7-5-8v-2l15 1 7 2 3 5 4 6 7 4 7-1 1-5v-3l6 1 11 5 14 7 19 13 15 14 11 13 11 20 6 18 5 21 3 21 2 24v47l-1 13-4 5-12 9-14 11-2 3v5l4 4 5 1 9-6 17-13 16-12 17-12 11-8h2v-55l1-9 4-5 5-1 6 2 3 4 4 11 5 3 7-1 5-6 9-16 5-4 8 1 5 5-1 9-2 5v6l5 6 2 1h8l6-3 6 1 6 7-1 7-8 7-15 10-5 5-1 4 2 5 7 2 16 1 2 2-1 9-3 6-4 2-7 1-43 2-5 3-8 9-7 11-5 11-4 10-7 9-9 8-16 9-27 9-3 2-1 6 1 17v16l-2 16-5 19-12 25-9 14-3 6 1 5 6 9 4 8 5 16v8l-9 6-17 11-24 15-30 19-5 1-11-13-3-5 5-3 13-7 14-9 9-8 1-5-4-6-4-1-7 4-8 6-19 11-21 9-20 6-16 3-18 2h-40l-35-3-7-1-8 7-5 6-5-1-26-16-20-13-26-16-7-5 1-7 5-18 4 2 6 8 12 13 10 8 10 6h5l5-6-1-5-12-10-8-7-7-7-12-17-10-16-8-17-4-13-2-14v-28l3-17 8-24 11-26v-6l-1-3-9-1-4 4-8 17-6 14-5-2-12-6-7-8-9-19-8-11-5-6-2-1-51-3-5-5-1-4v-9l2-1 18-1 4-4v-7l-6-5-16-10-5-6-1-6 4-6 2-1h7l9 3 6-3h2l2-5v-6l-3-7v-6l5-5 6-1 5 3 6 9 6 11 5 3 8-1 3-3 3-11 5-4 7 1 5 5 1 60 4 4 10 7 14 10 19 13 6 3 7-1 2-6v-26l-1-21-6-50-1-13v-15l2-14 6-20 8-16 9-14 11-13 14-14 13-10 10-7 18-10 13-5h6l5 5 7 2 5-1-2-8v-4l16-3h6l5 10 5 4 4 2 6-1 1-1-1-7-4-9z" fill="#D29A36"/>
<path transform="translate(1521)" d="m0 0h62l26 6 15 5 16 8 11 7 13 11 10 11 10 15 12 24v2l5 2 12 9 13 11 10 10 13 17 9 15 10 19 14 7h22l25 3 18 5 18 8 16 10 13 10 11 11 10 13 10 17 7 17 5 15 3 15v34l-6 24-8 20-8 14-11 14-9 10-10 8-14 9-12 7-19 8h-2l-2 6-12 16-12 13-13 11-6 4-1 18-5 30-4 14 1 4 11 9 8 8 11 14 9 16 6 15 5 17 3 21v32l10 8 6 7 6 13 2 8v14l-3 12-6 10-9 10-10 6-9 3-5 1-34 1-17 9-17 6-17 4-27 4-33 3h-42l-22-3-15-4-13-5-16-9-14-12-8-9-8-13-7-17v-2l-47 1-3 9-5 12-9 13-10 10-10 6-10 5-15 5-26 5-25 3h-39l-27-3-34-7-27-8-22-8-4-1-473-3h-191l-11 5-19 5-19 3-16 1-25-3-22-6-4-2-5 1-23 12-21 9-22 7-30 7-14 2h-45l-33-7-20-6-20-8-15-8-14-9-14-11-15-14-7-8-10-13-12-20-9-20-7-22-5-25-2-20v-32l1-15 1-5-16-4-16-8-9-7-10-9-11-15-9-19-4-13-3-21-6-70-9-108-4-42-1-8v-31l8-23 9-15 11-12 8-7 18-10 27-11 23-7 25-5 13-2 15-1h18l21 2 20 4 16 5 17 7 16 8 16 11 10 8 13 12 5 5 6-2 15-7 19-6 16-3 13-1h14l19 2 20 5 10 4 7-1 8-4 3-1 41-1 72-1 320-2h58l27 1 13 4 9 5 8-1 23-5 16-1h14l20 2 17 4 19 7 17 9 17 12 13 12 3 3 4-2 11-11 11-8 15-9 19-7 16-3 18-1 22 1 8-17 12-19 10-13 12-14 16-15 16-12 16-10 19-10 7-3 7-8 6-8 9-10 14-14 15-11 16-9 14-6 21-6zm22 17-27 2-16 3-21 7-16 8-16 11-12 11-10 11-14 20-20 9-17 9-17 12-12 11-9 8-7 8-13 17-8 13-8 15-7 17v2l-17-4-7-1h-21l-17 3-16 6-13 7-10 8-13 13-8 13-3 4-9-11-7-8-2-3h-2v-2l-8-7-15-11-17-9-19-7-20-4-10-1h-10l-25 3-19 5-8 3-13-9-8-3-8-1h-119l-314 2-67 1-9 2-10 6-2 2-5-1-16-7-14-4-12-2-17-1-19 2-17 4-16 6-14 7-8 6-5-1-8-10-5-5-11-10-16-12-13-8-21-10-19-6-19-4-9-1h-32l-19 2-27 6-27 9-20 9-11 6-10 9-7 8-8 16-4 15v21l6 70 9 108 5 57 3 17 5 15 7 13 7 9 10 10 14 8 15 5 20 1-3 13-2 17-1 18v13l3 27 5 23 6 19 11 23 12 18 9 11 14 14 17 13 15 9 19 9 21 7 21 5 18 2 22 1 31-3 20-4 20-6 16-6 25-12 11-7 5-3 5 1 12 5 13 4 18 3h23l21-4 18-6 7-3h246l422 2 14 4 19 7 28 8 25 5 33 4h30l25-3 22-4 16-5 13-7 10-9 8-11 5-12 3-17 77-1 2 12 4 12 7 13 9 10 9 8 14 8 16 6 19 4 10 1h32l36-3 24-3 25-6 16-7 9-7 41-1 10-4 8-6 6-9 3-11-2-12-5-9-4-5-8-5-8-3 3-21v-19l-3-19-4-14-5-13-7-13-8-11-9-10-9-8-13-8 1-7 6-19 5-25 1-10v-18l2-4 14-10 8-8 4-3v-2l3-1 10-13 9-13 4-5 19-7 18-10 13-10 14-14 11-16 8-17 5-17 2-11v-28l-4-20-7-18-7-13-10-14-10-11-14-11-17-10-15-6-19-5-6-1h-36l-20-10-5-5-10-21-10-16-11-13-7-8-14-12-12-8-7-5-8-19-10-17-11-13-12-10-15-9-15-6-13-4-19-3-12-1z" fill="#FEFDFA"/>
<path transform="translate(1496,62)" d="m0 0h5l1 4-13 12-6 10-4 13-1 5v7l9-1 19-4 2-14 5-12 8-11 9-6 5-2h9l-1 4-12 11-6 9-5 14v5h22l2-1 4-16 5-10 5-7 9-7 5-2 9-1 1 4-14 13-7 14-3 10v3l25 3 1-13 5-13 7-10 9-8 10-3 5 1v4l-10 8-8 11-5 15-1 8 1 3 29 10 20 10 13 9 9 7 10 9 8 8 12 16 10 19 6 16 6 24 4 29 1 12v57l10-6 4-3h2v-56l4-11 8-7 5-3 4-1h11l7 3 8 6 4-4 6-7 9-5h13l9 4 5 4 5 9 2 10v4h12l6 3 7 8 4 9v12l-4 8-5 5h-2v5l6 8 2 7v8l-3 11-6 8-6 5-5 2-6 1-43 2-4 4-9 15-7 17-8 11-5 5-10 8-17 9-20 7v27l-1 14-4 17-7 19-8 16-8 14 1 5 6 12 6 18 2 2 5 2 4 6 10 23 7 4 12 5 12 7 5 4v2h2l9 13 4 9 1 5v20l-3 12-7 12-8 7-14 7-14 4-22 3-27 2h-55l-10-5-8-8-4-8-3-14-4-26-3-9-9-11-9-10-3-4-8 1-27 6-24 3h-38l-27-2-15-1-2 5-3 3h-2l-5 38-4 17-6 9-8 7-11 4h-37l-34-2-26-3-16-4-16-8-9-8-6-12-2-8-1-17 2-13 5-10 11-12 12-9 10-5 10-4 5-8 10-22 2-2 5-1 3-8 6-18 3-6-1-5-8-15-5-15-4-16-1-7v-17l1-15 3-18v-5l-16-8-10-8-5-6-8-18-7-10-3-3-35-1-15-3-6-4-6-7-3-9v-16l3-6 4-4-2-4-7-8-2-6v-12l4-8 5-6 10-5 10-1v-11l6-9 8-7 6-2h9l11 4 5 5 4 6 4-1 9-6 3-1h11l10 4 7 8 3 8 1 53 4 4 12 9 11 7 3 2-1-21-6-59-1-12v-14l2-20 5-17 8-19 10-16 13-16 16-16 14-11 15-10 14-8 11-5 11-4 1-17 3-12 6-12 4-5 9-7zm30 61-2 2 5 10v5l-3 2-6-1-6-4-5-8-1-3-12 1-10 2 2 12-6 1-6-2-5-5-9 1-16 7-15 9-16 12-12 11-10 10-10 13-10 17-6 15-5 19-1 9v15l2 21 5 42 1 21v26l-2 6-7 1-11-6-11-8-17-12-11-8-3-3-1-60-5-5-7-1-5 4-3 11-3 3-8 1-5-3-10-18-4-4-5-1-7 3-2 3 1 9 2 4v6l-2 5-5 2-5 1-7-3h-7l-5 5-1 6 4 6 11 8 10 6 3 3v7l-4 4-18 1-2 1v9l3 7 3 2 51 3 5 4 10 14 9 19 7 8 15 8h2l8-19 8-15 7-1 4 1 1 9-12 29-7 21-3 17v28l3 17 4 12 8 16 11 18 12 16 11 11 13 10 2 3-1 5-4 4-7-1-12-8-13-12-7-8-6-8h-2l-6 21 1 5 19 12 21 13 17 11 21 13 5 1 9-10 4-3 15 2 27 2h40l24-3 21-5 19-7 16-8 16-9 10-8 4-1 4 2 3 5-1 5-10 9-20 12-10 5v3l13 16 5-1 24-15 22-14 19-12 14-9 1-1v-8l-6-18-6-11-4-6 1-6 9-14 11-21 5-14 4-17 1-11v-16l-1-20 1-3 9-4 21-7 16-9 10-9 6-8 9-21 8-12 9-10 3-1 43-2 9-2 3-3 3-8v-5l-2-2-16-1-7-2-2-5 1-4 5-5 12-8 10-8 2-3v-5l-6-7-6-1-6 3h-8l-6-5-1-2 1-9 2-6-1-7-7-4-7 1-6 8-8 14-3 3-7 1-5-3-5-13-3-3-7-1-5 3-2 3-1 15v49l-4 2-19 13-32 24-15 11-4 1-5-3-2-2 1-7 11-9 17-13 3-4 1-13v-47l-3-32-4-23-6-21-7-16-8-13-11-13-8-8-10-8-15-10-15-8-12-5h-4v6l-3 3-8-1-6-5-4-8-2-2-15-2h-6l2 5 3 5 1 7-7 1-8-4-5-7-2-8z" fill="#020604"/>
<path transform="translate(157,214)" d="m0 0h12l24 3 16 4 15 6 10 6 11 9 9 10 6 10 6 13 5 17 3 18v30l-4 20-5 13-6 11-7 11-5 6h-2l-2 4-12 10-15 10-18 8-17 6-18 6v8l5 36v9l-3 2h-60l-2-3-3-29-4-45-6-70-4-48-3-38-2-18v-12l4-4 21-9 19-5 22-4z" fill="#FCE00D"/>
<path transform="translate(289,478)" d="m0 0h29l18 3 19 5 15 6 16 8 9 6 1 3-7 10-11 16-15 20-6-1-6-4-21-8-17-3h-12l-19 3-12 6-9 7-8 10-7 12-6 17-3 15v12l3 14 6 15 9 12 7 7 11 7 12 6 11 3h28l17-4 12-5 13-7 6-5 4 2 11 14 10 13 11 14 2 5-2 4-14 11-14 8-14 6-19 5-20 3h-27l-26-4-24-8-16-8-11-8-11-9v-2l-4-2-13-17-10-19-4-11-4-17-3-23v-14l3-21 5-21 8-21 8-15 12-16 11-10 15-10 18-8 15-4z" fill="#FCE00D"/>
<path transform="translate(1044,260)" d="m0 0h16l17 4 13 5 15 10 9 9 8 12 6 16 3 17v22l-4 24-5 15-8 16-7 11-11 12-13 9-14 7-17 5-6 1h-16l-12-2-16-6-12-7-12-11-9-14-6-17-3-15-1-6v-23l3-20 6-17 7-13 11-14 11-10 10-7 15-8 16-4z" fill="#FCE10D"/>
<path transform="translate(376,257)" d="m0 0h21l16 4 15 6 13 9 5 4 9 12 7 15 4 17 1 10v12l-3 22-5 19-7 16-10 15-10 11-14 10-12 6-17 5-4 1h-23l-13-3-17-7-11-8-8-8-8-13-7-19-3-17-1-11v-10l3-21 5-17 9-17 11-14 11-10 14-9 13-6z" fill="#FCE00D"/>
<path transform="translate(475,514)" d="m0 0h25l15 4 16 8 11 8 8 9 8 15 4 12 2 11v26l-2 13-4 16-7 16-9 14-9 10-9 8-14 8-13 5-14 3h-18l-16-4-16-7-13-11-8-10-7-16-4-14-2-14v-18l3-21 5-16 6-11 12-16 7-7 14-10 14-7z" fill="#FCE10D"/>
<path transform="translate(1105,515)" d="m0 0h28l17 3 13 4 12 6 9 7 8 10 5 11 4 14 1 8v18l-3 20-8 20-8 10-3 3 1 4 7 11 16 25 7 11v3l-7 1h-35l-4-2-12-19-8-13-3-4h-26l1 15v22l-1 1-44 1-1-1-1-12v-169l2-3 24-4z" fill="#FCE00D"/>
<path transform="translate(620,515)" d="m0 0h27l19 3 19 7 11 7 8 8 5 8 5 12 3 14v27l-3 15-4 12-8 14-7 7 1 5 6 8 16 25 8 13v3l-2 1h-39l-5-2-10-16-12-19-4-2-9 1h-12l-1 1v32l-11 1h-34l-1-1-1-27v-150l2-2 23-4z" fill="#FCE00D"/>
<path transform="translate(694,264)" d="m0 0h54l3 4 6 18 12 38 28 88 12 36v5l-1 1h-46l-3-4-9-32-1-3-9 2-40 5-13 2-4 4-7 18-4 9-20 1h-29l1-7 18-49 22-58 8-23 17-45z" fill="#FCE00D"/>
<path transform="translate(828,518)" d="m0 0h26l10 3 11 6 7 7 7 14 3 14 1 13v129l-45 1-2-1-1-25-1-88-2-10-4-8-7-5-7-1-10 3-7 7-3 6-3 15-1 12-1 93-1 1-46 1-3-2v-182l1-1h39l2 1 3 14 6-4 8-6 11-5z" fill="#FCE00D"/>
<path transform="translate(921,257)" d="m0 0h38l-1 9-11 44-3 2-45 1 2 99 1 43-3 2h-45l-2-2-2-53-2-81-1-9-3-1h-25l-27-1-2-3-6-35-2-7v-5l22-1z" fill="#FCE00D"/>
<path transform="translate(576,258)" d="m0 0h76l-1 10-9 36-3 8-3 1h-50v27l2 80 1 20v16l-1 1h-48l-1-1-2-43-2-85-1-16-47-1-3-3-8-42v-5l2-1z" fill="#FCDF0D"/>
<path transform="translate(1017,518)" d="m0 0h15l2 1-3 27-2 9-1 1-11 1-50 1-1 3 2 38 13-1 32-4 10-1 1 1 1 12 1 22-4 2-50 8 1 18 1 5 64 1 1 1v40h-111l-2-68-1-65-1-45 2-4 46-2z" fill="#FCE00D"/>
<path transform="translate(1700,618)" d="m0 0 4 4 3 9-3 3-17 9-6 4v6l4 4 8-1 23-11 8 1 12 5 11 7 8 8 4 8 1 4v19l-3 9-7 8-6 4-13 5-9 2-31 3-20 1h-42l-7-6-4-8-5-32-1-9 3-3 23-14 23-15 23-14z" fill="#0C8A4B"/>
<path transform="translate(1321,613)" d="m0 0 5 1 22 14 20 13 26 16 15 10 1 1-1 13-3 23-3 10-5 6-5 3-6 1h-14l-57-3-22-3-17-6-8-6-5-9-2-8v-17l4-9 9-10 9-6 8-4 9-3h6l26 13 7 1 4-4v-6l-6-5-21-11-1-1 1-7z" fill="#0C8A4B"/>
<path transform="translate(1461,263)" d="m0 0h13l11 4 10 9 8 13 1 2 1 9v9l-2 17-4 15-5 13-7 13-8 10-13 9-6 2h-11l-10-4-8-8-8-16-4-18v-19l4-25 4-10 7-9 8-8 8-5 5-2z" fill="#020905"/>
<path transform="translate(1578,267)" d="m0 0h13l11 4 8 7 7 10 4 7v24l-5 21-6 15-6 10-8 10-10 8-7 3-10 1-8-2-7-4-8-9-5-11-4-15-1-7v-19l3-19 6-11 9-11 11-8z" fill="#020805"/>
<path transform="translate(155,275)" d="m0 0h16l18 3 12 5 9 7 7 9 4 11 1 6v18l-5 16-8 11-5 5-7 6-14 8-20 7-6 1-3-4-7-50-7-46-1-9 1-2z" fill="#0C8A4B"/>
<path transform="translate(1048,314)" d="m0 0h10l10 4 5 4 7 10 3 9 1 6v10l-3 13-6 12-11 12-12 6-3 1h-13l-9-3-10-9-4-7-3-15 1-13 4-13 4-8 9-10 10-6z" fill="#0C8A4B"/>
<path transform="translate(381,311)" d="m0 0h14l12 6 6 8 4 8 2 7v16l-4 14-7 12-7 7-14 8-9 1-12-2-9-5-7-9-4-14v-15l3-12 6-12 7-8 10-7z" fill="#0C8A4B"/>
<path transform="translate(485,565)" d="m0 0h8l11 4 7 7 6 11 1 5v19l-5 15-7 9-7 7-10 5-7 2h-7l-10-3-8-6-5-8-3-8-1-6v-11l4-15 5-9 9-10 11-6z" fill="#0C8A4B"/>
<path transform="translate(1443,409)" d="m0 0h6l5 6v6l-8 7-5 3 3 12 8 14 9 10 13 6 15 3h13l13-3 16-8 11-8 10-9 10-14-3-5-6-8-1-5 5-6 6-1 6 5 3 5 10 5 11 3 3 3 1 2v6l-4 4h-10l-6-1-2 5-6 8-9 10-10 9-14 9-14 7-14 4h-22l-16-3-14-6-9-7-7-7-9-14-6-14-1-5-10-1-6-3-2-3 1-7 3-4 17-1 12-6z" fill="#020A06"/>
<path transform="translate(631,561)" d="m0 0h26l10 5 6 9 2 9v14l-4 11-5 6-8 6-6 2-20 1-2-2v-60z" fill="#0C8A4B"/>
<path transform="translate(1117,561)" d="m0 0h25l8 4 7 8 2 6 1 7v10l-3 11-7 9-8 5-6 2-19 1-2-2v-59z" fill="#0C8A4B"/>
<path transform="translate(1588,286)" d="m0 0h10l6 4 4 5 3 8v13l-4 9-5 6-7 3h-8l-6-3-5-5-3-8v-14l4-10 8-7z" fill="#FEFDF8"/>
<path transform="translate(1472,286)" d="m0 0h9l6 3 5 6 2 5 1 12-3 10-6 8-8 4h-8l-6-3-5-6-3-9v-9l4-11 6-7z" fill="#FEFDF8"/>
<path transform="translate(718,321)" d="m0 0 4 2 9 30 7 23-1 4-32 3h-7l-1-4 4-8 15-44z" fill="#0C8A4B"/>
<path transform="translate(1581,247)" d="m0 0h11l8 3 7 6 6 10 4 9 4 16-1 3-10-15-8-7-11-4h-13l-13 4-8 6-5 5-8 10-3 3 3-10 9-17 7-9 9-8z" fill="#FEFDF9"/>
<path transform="translate(1464,248)" d="m0 0h11l10 5 7 7 7 12 4 13-1 3-10-14-9-7-9-3h-13l-8 2-8 4-10 9-3 1 2-6 8-11 7-7 10-6z" fill="#FEFDF7"/>
<path transform="translate(1800,728)" d="m0 0 6 1 5 8 1 5h2l2-5 5-8 5-1 2 2 2 18v7l-1 2h-5l-1-1-1-9-3 4-2 5-4 1-6-8-1-2-1 9-1 1h-5l-1-1v-14l1-11z" fill="#FEFCF1"/>
<path transform="translate(1456,209)" d="m0 0h15l9 3 2 4v6l-3 2-12-1h-10l-11 4-7 4-4-1-1-1 1-8 5-5 8-5z" fill="#03130B"/>
<path transform="translate(1584,209)" d="m0 0h15l13 4 8 7 2 4v6l-4 1-12-6-7-2h-12l-9 1-5-5 2-5 6-4z" fill="#03120A"/>
<path transform="translate(1774,728)" d="m0 0h21l1 4-2 3-8 1v20l-1 1h-5l-1-1v-20l-6-1-3-2v-4z" fill="#FEFDF5"/>
<path transform="translate(1560,274)" d="m0 0 2 1-13 13v-3l5-6z" fill="#085830"/>
</svg>
